<?xml version="1.0" encoding="utf-8"?>
<!-- Generator: Adobe Illustrator 24.0.0, SVG Export Plug-In . SVG Version: 6.00 Build 0)  -->
<svg version="1.1" id="Capa_1" xmlns="http://www.w3.org/2000/svg" xmlns:xlink="http://www.w3.org/1999/xlink" x="0px" y="0px"
	 viewBox="0 0 387.8 129.7" style="enable-background:new 0 0 387.8 129.7;" xml:space="preserve">
<style type="text/css">
	.st0{fill:#FFFFFF;}
</style>
<title>logo-allaria-wh</title>
<g>
	<polygon class="st0" points="54.2,30.9 32,51 32,59 52,40.9 59.5,40.9 42.5,56.3 42.5,64.6 74,36.1 81.6,36.1 58.4,57.1 58.4,64.9 
		95.9,30.9 103.8,30.9 53.4,76.6 53.4,85.1 100.7,42.2 100.7,49.2 74.1,73.3 74.1,81.1 95.3,61.9 95.3,69.1 84.7,78.6 84.7,86.7 
		111,62.9 111,70.1 90.2,88.9 90.2,97 106.1,82.6 106.1,130.4 0,130.4 0,30.9 	"/>
	<polygon class="st0" points="85.2,26.5 85.2,18.3 100.7,4.3 100.7,12.5 	"/>
	<polygon class="st0" points="101.1,27.1 101.1,18.8 121.8,0 121.8,8.7 	"/>
	<polygon class="st0" points="111.5,32 111.5,24.3 138.1,0.2 138.1,9.3 	"/>
	<polygon class="st0" points="111.2,39.5 132.5,20.3 132.5,28.4 111,47.9 	"/>
	<path class="st0" d="M177,117.3l-4.3-14.2h-21.8l-4.3,14.2h-13.7L154,57.3h15.5l21.2,60.1L177,117.3L177,117.3z M169.7,92.5
		l-4.3-13.9c-0.3-0.9-0.6-2.1-1.1-3.6c-0.5-1.5-0.9-2.9-1.3-4.5c-0.5-1.5-0.8-2.8-1.1-3.9c-0.3,1.1-0.7,2.5-1.1,4.1
		c-0.5,1.7-0.9,3.2-1.4,4.7c-0.4,1.5-0.7,2.5-0.9,3.1l-4.3,13.9L169.7,92.5L169.7,92.5z"/>
	<rect x="196.6" y="53.7" class="st0" width="12.5" height="63.6"/>
	<rect x="220.1" y="53.7" class="st0" width="12.5" height="63.6"/>
	<path class="st0" d="M262.3,70.7c6.1,0,10.8,1.3,14.1,4c3.3,2.7,4.9,6.7,4.9,12.2v30.5h-8.7l-2.4-6.2h-0.3c-1.3,1.6-2.6,3-4,4
		c-1.4,1-2.9,1.8-4.7,2.3c-1.8,0.5-3.9,0.7-6.5,0.7c-2.7,0-5.1-0.5-7.3-1.6c-2.1-1-3.8-2.6-5.1-4.8c-1.2-2.1-1.8-4.9-1.8-8.2
		c0-4.9,1.7-8.4,5.1-10.7c3.4-2.3,8.5-3.6,15.3-3.8l7.9-0.2v-2c0-2.4-0.6-4.2-1.9-5.3s-3-1.7-5.2-1.7c-2.2,0-4.4,0.3-6.5,0.9
		c-2.1,0.6-4.3,1.4-6.4,2.4l-4.1-8.4c2.4-1.3,5.1-2.3,8.2-3C256,71,259.1,70.7,262.3,70.7 M268.9,96.1l-4.8,0.2
		c-4,0.1-6.8,0.8-8.4,2.2c-1.6,1.3-2.3,3.1-2.3,5.3c0,1.9,0.6,3.3,1.7,4.1c1.1,0.8,2.6,1.2,4.4,1.2c2.7,0,4.9-0.8,6.8-2.4
		c1.8-1.6,2.8-3.8,2.8-6.7V96.1z"/>
	<path class="st0" d="M316.1,70.8c0.6,0,1.4,0,2.2,0.1c0.8,0.1,1.5,0.2,2,0.3l-0.9,11.7c-0.4-0.1-1-0.2-1.7-0.3
		c-0.7-0.1-1.4-0.1-1.9-0.1c-1.6,0-3.2,0.2-4.7,0.6c-1.5,0.4-2.9,1.1-4.1,2c-1.2,0.9-2.1,2.1-2.8,3.6c-0.7,1.5-1,3.3-1,5.5v23.3
		h-12.5V71.6h9.4l1.8,7.7h0.6c0.9-1.6,2-3,3.4-4.3c1.3-1.3,2.9-2.3,4.6-3.1C312.2,71.1,314.1,70.8,316.1,70.8"/>
	<path class="st0" d="M332.8,53.7c1.9,0,3.5,0.4,4.8,1.3c1.3,0.9,2,2.5,2,4.8c0,2.3-0.7,3.9-2,4.8c-1.3,0.9-2.9,1.3-4.8,1.3
		c-1.9,0-3.5-0.4-4.8-1.3c-1.3-0.9-2-2.5-2-4.8c0-2.3,0.7-3.9,2-4.8C329.3,54.1,330.9,53.7,332.8,53.7 M339,117.3h-12.5V71.6H339
		V117.3z"/>
	<path class="st0" d="M368.8,70.7c6.1,0,10.8,1.3,14.1,4c3.3,2.7,4.9,6.7,4.9,12.2v30.5h-8.7l-2.4-6.2h-0.3c-1.3,1.6-2.6,3-4,4
		c-1.4,1-2.9,1.8-4.7,2.3c-1.8,0.5-3.9,0.7-6.5,0.7c-2.7,0-5.1-0.5-7.3-1.6c-2.1-1-3.8-2.6-5.1-4.8c-1.2-2.1-1.8-4.9-1.8-8.2
		c0-4.9,1.7-8.4,5.1-10.7c3.4-2.3,8.5-3.6,15.3-3.8l7.9-0.2v-2c0-2.4-0.6-4.2-1.9-5.3s-3-1.7-5.2-1.7c-2.2,0-4.4,0.3-6.5,0.9
		c-2.1,0.6-4.3,1.4-6.4,2.4l-4.1-8.4c2.4-1.3,5.1-2.3,8.2-3C362.4,71,365.5,70.7,368.8,70.7 M375.4,96.1l-4.8,0.2
		c-4,0.1-6.8,0.8-8.4,2.2c-1.6,1.3-2.3,3.1-2.3,5.3c0,1.9,0.6,3.3,1.7,4.1c1.1,0.8,2.6,1.2,4.4,1.2c2.7,0,4.9-0.8,6.8-2.4
		c1.8-1.6,2.8-3.8,2.8-6.7V96.1z"/>
</g>
</svg>
