<svg width="186" height="43" viewBox="0 0 186 43" fill="none" xmlns="http://www.w3.org/2000/svg">
<path d="M153.071 29.0952C150.72 28.6277 148.879 28.2363 148.879 26.7904C148.879 25.464 150.321 24.7791 153.204 24.7791C155.078 24.7791 156.742 25.0835 158.35 25.5945L159.526 21.1479C158.084 20.6369 156.032 20.126 153.193 20.126C147.437 20.126 143.589 22.9526 143.589 27.1383C143.589 31.8022 147.737 32.7372 151.053 33.4656C153.404 33.9766 155.411 34.4114 155.411 35.9444C155.411 37.6512 153.493 38.2166 151.219 38.2166C148.946 38.2166 147.293 37.5316 145.763 35.9117L142.58 39.7603C144.72 41.8151 147.681 42.837 151.042 42.837C156.753 42.837 160.734 39.8908 160.734 35.6943C160.734 30.7368 156.454 29.8344 153.049 29.106L153.071 29.0952Z" fill="white"/>
<path d="M176.206 20.1152C168.443 20.1152 163.42 24.8227 163.42 32.0959C163.42 38.3363 167.867 42.8372 174.022 42.8372C176.905 42.8372 179.167 41.8152 180.787 40.3584V42.1957H185.5V22.3005C182.75 20.8436 179.655 20.1152 176.206 20.1152ZM180.354 37.0969C179.134 37.9123 177.471 38.3798 175.596 38.3798C171.36 38.3798 168.787 35.814 168.787 31.7045C168.787 27.3449 171.449 24.7792 175.94 24.7792C177.604 24.7792 179.123 25.0401 180.343 25.5076V37.0969H180.354Z" fill="white"/>
<path d="M27.9556 0.880859C6.29694 2.84674 -2.3324 9.92171 0.532673 16.6079L3.21584 22.6833C4.23908 18.5294 8.85504 12.3652 26.7959 10.0106L29.7974 9.62183C31.1845 9.44412 31.7188 8.31124 31.0935 7.04508L27.9669 0.880859L27.9556 0.880859Z" fill="white"/>
<path d="M27.5455 12.8096C7.81969 15.4308 3.52207 23.4276 5.45486 27.7592L8.36542 34.3566C8.36542 28.5922 16.2785 24.305 28.6256 22.0281C30.2401 21.7171 31.0814 20.6287 30.4561 19.2292L27.5455 12.8096Z" fill="white"/>
<path d="M12.3455 32.1245C11.3222 33.1241 10.606 34.5236 10.606 35.7564C10.606 39.3883 14.4033 41.7873 23.6693 41.965L20.2699 35.4121C14.7217 35.7564 13.0731 34.0127 12.3568 32.1356L12.3455 32.1245Z" fill="white"/>
<path d="M130.77 20.1162C128.197 20.1162 125.924 20.8446 124.316 22.2579V12.3755H119.17V42.1858H124.316V25.976C126.012 25.1172 127.587 24.7367 129.295 24.7367C132.223 24.7367 133.964 26.1065 133.964 28.3678V42.1858H139.11V28.2374C139.11 23.1494 136.016 20.1053 130.77 20.1053V20.1162Z" fill="white"/>
<path d="M102.847 20.1152C96.0373 20.1152 90.8472 24.9966 90.8472 31.4979C90.8472 37.9993 96.0373 42.8807 102.847 42.8807C109.656 42.8807 114.846 37.9993 114.846 31.4979C114.846 24.9966 109.7 20.1152 102.847 20.1152ZM102.847 38.2058C99.575 38.2058 96.2591 35.901 96.2591 31.4871C96.2591 27.0732 99.575 24.7249 102.847 24.7249C106.118 24.7249 109.478 27.0297 109.478 31.4871C109.478 35.9445 106.162 38.2058 102.847 38.2058Z" fill="white"/>
<path d="M81.6867 38.1621C78.3708 38.1621 74.8331 36.0638 74.8331 31.4434C74.8331 27.5513 77.6721 24.8116 81.731 24.8116C84.0488 24.8116 85.4351 25.714 86.4443 26.5619L89.4497 22.9634C88.1411 21.4631 85.1246 20.0933 81.6423 20.0933C74.578 20.0933 69.4211 24.9312 69.4211 31.5956C69.4211 38.2599 74.2675 42.8478 81.1544 42.8478C84.8251 42.8478 88.0967 41.5215 89.8378 39.4667L86.7881 36.1291C85.3464 37.5424 83.694 38.1404 81.6867 38.1404V38.1621Z" fill="white"/>
<path d="M65.273 20.8008H60.1272V42.1855H65.273V20.8008Z" fill="white"/>
<path d="M62.7005 18.5274C64.4338 18.5274 65.839 17.1499 65.839 15.4507C65.839 13.7515 64.4338 12.374 62.7005 12.374C60.9671 12.374 59.562 13.7515 59.562 15.4507C59.562 17.1499 60.9671 18.5274 62.7005 18.5274Z" fill="white"/>
<path d="M36.5266 42.1835H42.1492V30.7247H55.546V25.9302H42.1492V17.8416H56.3777V13.1016H36.5266V42.1835Z" fill="white"/>
</svg>
