<svg xmlns="http://www.w3.org/2000/svg" viewBox="0 0 122 26" fill="white">
  <path d="M32.075 13.232c0-4.4 2.9-7.4 7-7.4 4.2 0 7 3 7 7.4s-2.8 7.4-7 7.4-7-3.1-7-7.4m12.3-.1c0-3.5-2.1-6-5.3-6-3.1 0-5.3 2.4-5.3 6 0 3.5 2.2 6 5.3 6 3.2 0 5.3-2.4 5.3-6M57.775 14.132v5.5c0 .6-.3.8-.7.8h-.2c-.4 0-.7-.2-.7-.8v-5.4c0-2-1-3.3-2.8-3.3-1.4 0-2.7.8-3.3 2.1v6.6c0 .6-.3.8-.7.8h-.2c-.4 0-.7-.2-.7-.8v-9.8c.2-.1.4-.2.6-.2.5 0 .9.2 1 1.3v.6c.7-1.3 2.1-2.1 3.6-2.1 2.7.1 4.1 2 4.1 4.7M65.075 9.532c2.9 0 4.8 2.1 4.8 5.2v.2c0 .4-.2.5-.6.5h-8v.3c.1 2 1.8 3.6 3.9 3.5 1.4.1 2.8-.7 3.4-1.9.5 0 .9.4.9.8-.1.5-.4 1-.8 1.3-1 .8-2.3 1.2-3.5 1.1-2.8.1-5.3-2.1-5.4-4.9v-.5c0-3.3 2.2-5.6 5.3-5.6m0 1.3c-1.9 0-3.5 1.5-3.7 3.4h6.9c0-2.1-1.3-3.4-3.2-3.4M71.375 17.732c0-.4.4-.8.8-.9.9 1.5 2.5 2.5 4.3 2.4 2.1 0 3.4-1 3.4-2.6 0-1.8-1.8-2.3-3.8-2.8-2.2-.6-4.4-1.3-4.4-4.1 0-2.3 2-4 4.8-4 1.4-.1 2.8.4 4 1.3.4.3.6.8.7 1.3 0 .5-.4.8-.8 1-.8-1.4-2.3-2.2-3.8-2.1-1.9 0-3.2 1-3.2 2.5 0 1.7 1.5 2.1 3.6 2.6 2.3.6 4.6 1.4 4.6 4.2 0 2.5-2 4.1-5 4.1-1.6.1-3.2-.4-4.4-1.5-.5-.4-.7-.9-.8-1.4M94.175 15.032c0 3.3-2.1 5.6-4.9 5.6-1.6.1-3.1-.8-3.8-2.2v5.5c0 .6-.3.8-.7.8h-.2c-.4 0-.7-.2-.7-.8v-14c.2-.1.4-.2.6-.2.5 0 .9.3 1 1.2v.9c.8-1.4 2.3-2.3 3.9-2.3 2.7 0 4.8 2.2 4.8 5.5m-1.6 0c0-2.5-1.5-4.2-3.6-4.2-1.6 0-3.1 1-3.6 2.5v2.3c0 1.9 1.6 3.5 3.5 3.5 2.2.1 3.7-1.6 3.7-4.1M102.875 14.132h.2v-.4c0-1.8-1-2.8-2.9-2.8-1.4-.1-2.6.7-3.2 1.9 0 0-1 0-1-.8.1-.5.3-.9.6-1.2 1-.9 2.3-1.3 3.7-1.3 2.8 0 4.3 1.6 4.3 4.2v6.5c0 .1-.3.2-.6.2-.5 0-.8-.2-.9-1v-1c-.8 1.4-2.3 2.2-3.9 2.1-2.2 0-3.6-1.2-3.6-2.9.1-2.4 2.3-3.4 7.3-3.5m.3 1h-.4c-3.9.1-5.5.8-5.5 2.4 0 1.1.9 1.8 2.3 1.8 2 0 3.6-1.4 3.6-3.2v-1zM116.675 14.132v5.5c0 .6-.3.8-.7.8h-.2c-.4 0-.7-.2-.7-.8v-5.4c0-2-1-3.3-2.8-3.3-1.4 0-2.7.8-3.3 2.1v6.6c0 .6-.3.8-.7.8h-.2c-.4 0-.7-.2-.7-.8v-9.8c.2-.1.4-.2.6-.2.5 0 .9.2 1 1.3v.6c.7-1.3 2.1-2.1 3.6-2.1 2.8.1 4.1 2 4.1 4.7M.7 12.9c0-1.7.3-3.4 1-4.9.6-1.5 1.5-2.8 2.7-3.9 1.1-1.1 2.5-2 4.1-2.6 1.6-.6 3.3-.9 5.2-.9 1.9 0 3.6.3 5.2.9 1.6.6 3 1.5 4.1 2.6 1.1 1.1 2 2.4 2.7 3.9.6 1.5 1 3.1 1 4.9s-.3 3.4-1 4.9c-.6 1.5-1.5 2.8-2.7 3.9-1.1 1.1-2.5 2-4.1 2.6-1.6.6-3.3.9-5.2.9-1.9 0-3.6-.3-5.2-.9-1.6-.6-2.9-1.5-4.1-2.6-1.1-1.1-2-2.4-2.7-3.9-.7-1.6-1-3.2-1-4.9zm6.4 0c0 .9.2 1.8.5 2.6.4.8.8 1.5 1.4 2.1.6.6 1.3 1 2.1 1.4.8.3 1.6.5 2.5.5s1.7-.2 2.5-.5 1.5-.8 2.1-1.4c.6-.6 1.1-1.3 1.4-2.1.4-.8.5-1.6.5-2.6s-.2-1.8-.5-2.6c-.4-.8-.8-1.5-1.4-2-.6-.6-1.3-1-2.1-1.4s-1.6-.5-2.5-.5-1.7.2-2.5.5-1.5.8-2.1 1.4c-.6.6-1.1 1.3-1.4 2-.4.8-.5 1.6-.5 2.6z"/>
</svg>
