<?xml version="1.0" encoding="utf-8"?>
<!-- Generator: Adobe Illustrator 24.0.0, SVG Export Plug-In . SVG Version: 6.00 Build 0)  -->
<svg version="1.1" id="Capa_1" xmlns="http://www.w3.org/2000/svg" xmlns:xlink="http://www.w3.org/1999/xlink" x="0px" y="0px"
	 viewBox="0 0 380.5 129.7" style="enable-background:new 0 0 380.5 129.7;" xml:space="preserve">
<style type="text/css">
	.st0{fill:#003366;}
	.st1{fill:#8B734B;}
	.st2{fill:#231F20;}
</style>
<title>logo-allaria-wh</title>
<g>
	<polygon class="st0" points="54.3,31.5 32.6,51.2 32.6,58.9 52.1,41.3 59.4,41.3 42.9,56.3 42.9,64.5 73.7,36.6 81.1,36.6 
		58.4,57.1 58.4,64.7 95.1,31.5 102.9,31.5 53.5,76.2 53.5,84.5 99.8,42.5 99.8,49.4 73.8,72.9 73.8,80.6 94.5,61.8 94.5,68.8 
		84.2,78.1 84.2,86.1 109.8,62.8 109.8,69.8 89.5,88.2 89.5,96.1 105.1,82 105.1,128.7 1.3,128.7 1.3,31.5 	"/>
	<polygon class="st1" points="84.6,27.2 84.6,19.2 99.7,5.5 99.7,13.5 	"/>
	<polygon class="st1" points="100.1,27.7 100.1,19.6 120.4,1.3 120.4,9.7 	"/>
	<polygon class="st1" points="110.4,32.5 110.4,25 136.3,1.5 136.3,10.3 	"/>
	<polygon class="st1" points="110.1,39.9 130.9,21.1 130.9,29 109.9,48.1 	"/>
	<path class="st2" d="M174.4,116l-4.2-13.9h-21.3l-4.2,13.9h-13.4l20.6-58.7h15.2l20.7,58.7L174.4,116L174.4,116z M167.2,91.7
		L163,78.1c-0.3-0.9-0.6-2.1-1.1-3.5c-0.4-1.4-0.9-2.9-1.3-4.4c-0.4-1.5-0.8-2.8-1.1-3.9c-0.3,1.1-0.6,2.4-1.1,4.1
		c-0.5,1.6-0.9,3.1-1.3,4.6c-0.4,1.4-0.7,2.5-0.9,3.1L152,91.7L167.2,91.7L167.2,91.7z"/>
	<rect x="193.6" y="53.8" class="st2" width="12.2" height="62.2"/>
	<rect x="216.5" y="53.8" class="st2" width="12.2" height="62.2"/>
	<path class="st2" d="M257.8,70.4c6,0,10.6,1.3,13.8,3.9c3.2,2.6,4.8,6.6,4.8,11.9V116h-8.5l-2.4-6.1h-0.3c-1.3,1.6-2.6,2.9-3.9,3.9
		c-1.3,1-2.9,1.8-4.6,2.2c-1.7,0.5-3.8,0.7-6.3,0.7c-2.6,0-5-0.5-7.1-1.5c-2.1-1-3.7-2.6-4.9-4.7c-1.2-2.1-1.8-4.8-1.8-8
		c0-4.7,1.7-8.2,5-10.5s8.3-3.5,15-3.7l7.8-0.2v-2c0-2.3-0.6-4.1-1.8-5.2c-1.2-1.1-2.9-1.6-5.1-1.6c-2.2,0-4.3,0.3-6.4,0.9
		c-2.1,0.6-4.2,1.4-6.2,2.3l-4-8.2c2.4-1.3,5-2.2,8-3C251.6,70.7,254.7,70.4,257.8,70.4 M264.3,95.3l-4.7,0.2
		c-3.9,0.1-6.7,0.8-8.2,2.1c-1.5,1.3-2.3,3-2.3,5.2c0,1.9,0.5,3.2,1.6,4c1.1,0.8,2.5,1.2,4.3,1.2c2.6,0,4.8-0.8,6.6-2.3
		c1.8-1.5,2.7-3.7,2.7-6.6V95.3z"/>
	<path class="st2" d="M310.4,70.4c0.6,0,1.3,0,2.1,0.1c0.8,0.1,1.5,0.2,2,0.3l-0.9,11.4c-0.4-0.1-1-0.2-1.7-0.3
		c-0.7-0.1-1.4-0.1-1.9-0.1c-1.6,0-3.1,0.2-4.6,0.6c-1.5,0.4-2.8,1.1-4,1.9c-1.2,0.9-2.1,2.1-2.8,3.5c-0.7,1.4-1,3.2-1,5.3V116
		h-12.2V71.3h9.2l1.8,7.5h0.6c0.9-1.5,2-2.9,3.3-4.2c1.3-1.3,2.8-2.3,4.5-3C306.6,70.8,308.4,70.4,310.4,70.4"/>
	<path class="st2" d="M326.7,53.8c1.8,0,3.4,0.4,4.7,1.3c1.3,0.8,2,2.4,2,4.7c0,2.3-0.7,3.8-2,4.7c-1.3,0.9-2.9,1.3-4.7,1.3
		c-1.8,0-3.4-0.4-4.7-1.3c-1.3-0.9-1.9-2.4-1.9-4.7c0-2.3,0.6-3.9,1.9-4.7C323.3,54.2,324.9,53.8,326.7,53.8 M332.8,116h-12.2V71.3
		h12.2V116z"/>
	<path class="st2" d="M361.9,70.4c6,0,10.6,1.3,13.8,3.9c3.2,2.6,4.8,6.6,4.8,11.9V116H372l-2.4-6.1h-0.3c-1.3,1.6-2.6,2.9-3.9,3.9
		c-1.3,1-2.9,1.8-4.6,2.2c-1.7,0.5-3.8,0.7-6.3,0.7c-2.6,0-5-0.5-7.1-1.5c-2.1-1-3.7-2.6-4.9-4.7c-1.2-2.1-1.8-4.8-1.8-8
		c0-4.7,1.7-8.2,5-10.5c3.3-2.3,8.3-3.5,15-3.7l7.8-0.2v-2c0-2.3-0.6-4.1-1.8-5.2c-1.2-1.1-2.9-1.6-5.1-1.6c-2.2,0-4.3,0.3-6.4,0.9
		c-2.1,0.6-4.2,1.4-6.2,2.3l-4-8.2c2.4-1.3,5-2.2,8-3C355.7,70.7,358.7,70.4,361.9,70.4 M368.4,95.3l-4.7,0.2
		c-3.9,0.1-6.7,0.8-8.2,2.1c-1.5,1.3-2.3,3-2.3,5.2c0,1.9,0.5,3.2,1.6,4c1.1,0.8,2.5,1.2,4.3,1.2c2.6,0,4.8-0.8,6.6-2.3
		c1.8-1.5,2.7-3.7,2.7-6.6V95.3z"/>
</g>
</svg>
